<svg width="131" height="40" viewBox="0 0 131 40" fill="none" xmlns="http://www.w3.org/2000/svg">
<path d="M80.8464 30.7211C73.3032 36.2985 62.3313 39.27 52.8681 39.27C39.6104 39.27 27.7241 34.3784 18.6723 26.2409C17.9866 25.6009 18.5809 24.7323 19.4495 25.2351C29.187 30.904 41.2104 34.287 53.6452 34.287C62.0113 34.287 71.246 32.5498 79.7492 28.9382C81.0293 28.4353 82.0808 29.8068 80.8464 30.7211Z" fill="#FF9900"/>
<path d="M84.0007 27.11C83.0407 25.8756 77.6004 26.5156 75.1775 26.8357C74.446 26.9271 74.3089 26.2871 74.9946 25.8299C79.3377 22.7669 86.4237 23.6812 87.2466 24.687C88.0695 25.6927 87.018 32.8245 82.9492 36.2075C82.3092 36.7104 81.7149 36.4361 81.9892 35.7503C82.9035 33.4645 84.9608 28.39 84.0007 27.11Z" fill="#FF9900"/>
<path fill-rule="evenodd" clip-rule="evenodd" d="M26.9928 22.7666H22.9697C22.604 22.7209 22.284 22.4466 22.2383 22.0809V1.41714C22.2383 1.00569 22.604 0.685678 23.0155 0.685678H26.7642C27.1756 0.685678 27.4499 1.00569 27.4957 1.37142V4.06868H27.5871C28.5471 1.46285 30.4215 0.228516 32.8902 0.228516C35.4046 0.228516 37.0046 1.46285 38.1018 4.06868C39.0619 1.46285 41.302 0.228516 43.6792 0.228516C45.3707 0.228516 47.1994 0.91426 48.3423 2.51433C49.4318 3.99297 49.3953 6.03464 49.3602 7.99098C49.3541 8.3331 49.348 8.67261 49.348 9.00604V22.0809C49.348 22.4923 48.9823 22.8124 48.5709 22.8124H44.5935C44.1821 22.7666 43.8621 22.4466 43.8621 22.0809V11.109C43.8621 10.922 43.8663 10.6736 43.8711 10.3907V10.3906V10.3906V10.3906C43.8887 9.35913 43.9141 7.86884 43.7706 7.22311C43.4506 5.85162 42.582 5.44017 41.3934 5.44017C40.4334 5.44017 39.3819 6.0802 38.9704 7.13167C38.5952 8.09055 38.6002 9.61972 38.604 10.7831C38.6044 10.8954 38.6047 11.0043 38.6047 11.109V22.0809C38.6047 22.4923 38.239 22.8124 37.8275 22.8124H33.8045C33.3931 22.7666 33.073 22.4466 33.073 22.0809V11.109C33.073 10.8812 33.0767 10.6421 33.0804 10.3962C33.1141 8.17396 33.1564 5.39445 30.6044 5.39445C27.8094 5.39445 27.8129 8.49417 27.8155 10.8918L27.8157 11.109V22.0809C27.77 22.4466 27.4499 22.7666 26.9928 22.7666ZM75.3149 4.34298V1.37142C75.3149 0.91426 75.6349 0.639962 76.0463 0.639962H89.3041C89.7155 0.639962 90.0812 0.959976 90.0812 1.37142V3.88582C90.0812 4.29726 89.7155 4.84586 89.0755 5.76019L82.218 15.5435C84.7781 15.4978 87.4754 15.8635 89.7612 17.1435C90.2641 17.4178 90.4012 17.875 90.447 18.2864V21.4409C90.447 21.898 89.9898 22.4009 89.4869 22.1266C85.4182 19.9779 79.9779 19.7494 75.4977 22.1723C75.0406 22.4009 74.5377 21.9437 74.5377 21.4866V18.4693C74.5377 18.0121 74.5377 17.1893 75.0406 16.4578L82.9952 5.07444H76.0921C75.6806 5.07444 75.3149 4.75443 75.3149 4.34298ZM110.745 11.8862C110.745 5.34874 107.499 0.228516 101.51 0.228516C95.6586 0.228516 92.4128 5.25731 92.4585 11.7033C92.4585 18.1036 95.6586 23.2238 101.51 23.2238C107.179 23.2238 110.745 18.195 110.745 11.8862ZM101.51 4.48013C98.5387 4.48013 98.3559 8.54888 98.3559 11.0633L98.3559 11.1696C98.3552 13.7263 98.3539 18.9722 101.465 18.9722C104.573 18.9722 104.756 14.6291 104.756 11.9776C104.756 10.2404 104.665 8.13743 104.162 6.49165C103.705 5.02872 102.79 4.48013 101.51 4.48013ZM114.448 22.7666H118.471C118.882 22.7666 119.248 22.4466 119.294 22.0352V10.8804C119.294 9.4632 119.385 8.22886 119.934 6.94881C120.391 5.94305 121.305 5.30302 122.265 5.30302C124.83 5.30302 124.804 8.08689 124.783 10.3122C124.782 10.5066 124.78 10.6967 124.78 10.8804V22.1266C124.826 22.4466 125.146 22.7209 125.511 22.7666H129.534C129.946 22.7666 130.266 22.4923 130.312 22.1266V9.09747C130.312 7.08596 130.312 4.29726 129.26 2.65148C128.117 0.868544 126.334 0.228516 124.551 0.228516C121.763 0.228516 120.208 1.55429 119.065 4.3887H118.974V1.23427C118.882 0.91426 118.608 0.639962 118.242 0.639962H114.494C114.082 0.639962 113.762 0.959976 113.717 1.32571V22.0352C113.717 22.4009 114.037 22.7209 114.448 22.7666Z" fill="black"/>
<path fill-rule="evenodd" clip-rule="evenodd" d="M67.8631 22.8126C68.1831 22.9955 68.5488 22.9498 68.8231 22.7212C69.1152 22.4778 69.488 22.1595 69.8861 21.8195C70.6097 21.2016 71.4173 20.512 71.9776 20.0696C72.2976 19.841 72.2519 19.3839 71.9776 19.0182C71.8894 18.8914 71.8006 18.768 71.7125 18.6457C71.07 17.753 70.4689 16.9179 70.4689 15.2694V9.00629C70.4689 8.79696 70.4701 8.58877 70.4712 8.38195C70.4844 5.96895 70.4966 3.7417 68.686 2.05741C67.1316 0.548777 64.5715 0.0458984 62.6057 0.0458984C58.7656 0.0458984 54.5139 1.4631 53.5996 6.2176C53.5082 6.72047 53.8739 6.94906 54.1939 7.04049L58.0798 7.45193C58.4455 7.45193 58.6741 7.08621 58.7656 6.72047C59.0856 5.07469 60.4571 4.29751 62.0114 4.29751C62.8343 4.29751 63.7486 4.61753 64.2515 5.34899C64.7769 6.07649 64.7664 7.05412 64.7569 7.93439C64.7556 8.0498 64.7544 8.16354 64.7544 8.27483V8.77771C64.3751 8.82233 63.9764 8.86454 63.5653 8.90806C61.4492 9.13207 59.0029 9.39106 57.1655 10.1949C54.6511 11.2921 52.8682 13.4865 52.8682 16.7781C52.8682 20.9382 55.5197 23.0412 58.9027 23.0412C61.7371 23.0412 63.3372 22.3554 65.5316 20.1153C65.6378 20.2681 65.7345 20.4103 65.8261 20.545C66.3649 21.3378 66.7299 21.8748 67.8631 22.8126ZM64.7547 13.1375C64.7545 13.0563 64.7544 12.9746 64.7544 12.8922V12.0236C61.8286 12.0236 58.7656 12.6636 58.7656 16.0923C58.7656 17.8295 59.6799 19.0182 61.2342 19.0182C62.3771 19.0182 63.3829 18.3324 64.0229 17.1895C64.7589 15.8474 64.7569 14.5874 64.7547 13.1375Z" fill="black"/>
<path fill-rule="evenodd" clip-rule="evenodd" d="M15.015 22.8126C15.335 22.9955 15.7007 22.9498 15.975 22.7212C16.2671 22.4778 16.6398 22.1595 17.038 21.8195C17.7615 21.2016 18.5691 20.512 19.1294 20.0696C19.4494 19.841 19.4037 19.3839 19.1294 19.0182C19.0413 18.8914 18.9524 18.768 18.8644 18.6457C18.2219 17.753 17.6208 16.9179 17.6208 15.2694V9.00629C17.6208 8.79696 17.6219 8.58877 17.6231 8.38195C17.6363 5.96895 17.6485 3.7417 15.8379 2.05741C14.2835 0.548777 11.7234 0.0458984 9.75759 0.0458984C5.91742 0.0458984 1.66581 1.4631 0.75148 6.2176C0.660047 6.72047 1.02578 6.94906 1.34579 7.04049L5.23168 7.45193C5.59741 7.45193 5.82599 7.08621 5.91742 6.72047C6.23743 5.07469 7.60892 4.29751 9.16327 4.29751C9.98617 4.29751 10.9005 4.61753 11.4034 5.34899C11.9288 6.07649 11.9182 7.05412 11.9087 7.93439C11.9075 8.0498 11.9063 8.16354 11.9063 8.27483V8.77771C11.5269 8.82233 11.1283 8.86454 10.7171 8.90806C8.6011 9.13207 6.15474 9.39106 4.31735 10.1949C1.80295 11.2921 0.0200195 13.4865 0.0200195 16.7781C0.0200195 20.9382 2.67156 23.0412 6.05457 23.0412C8.88898 23.0412 10.489 22.3554 12.6834 20.1153C12.7897 20.2681 12.8863 20.4103 12.9779 20.545C13.5168 21.3378 13.8818 21.8748 15.015 22.8126ZM11.9522 13.1375C11.9521 13.0563 11.952 12.9746 11.952 12.8922V12.0236C9.02613 12.0236 5.96314 12.6636 5.96314 16.0923C5.96314 17.8295 6.87746 19.0182 8.43181 19.0182C9.57472 19.0182 10.5805 18.3324 11.2205 17.1895C11.9565 15.8474 11.9545 14.5874 11.9522 13.1375Z" fill="black"/>
</svg>
