<svg width="122" height="49" viewBox="0 0 122 49" fill="none" xmlns="http://www.w3.org/2000/svg">
<path fill-rule="evenodd" clip-rule="evenodd" d="M0.0405273 25.2474C0.0405273 14.2868 7.1763 10.6543 15.7396 10.6543C27.3505 10.6543 30.5538 18.4327 30.5538 23.4785V26.6793H6.31253C6.31253 31.7794 10.1868 35.4183 15.5735 35.4183C22.1873 35.4183 23.5472 30.7751 23.5472 30.7751H29.89C29.89 30.7751 29.051 39.3983 15.9603 39.3983C4.83888 39.3983 0.0405273 33.9305 0.0405273 25.2474ZM24.1412 22.5941C24.1412 17.886 20.6456 14.7448 15.518 14.7448C11.0157 14.7448 6.45264 17.5957 6.45264 22.5941H24.1412Z" fill="#E53238"/>
<path fill-rule="evenodd" clip-rule="evenodd" d="M30.5494 33.8939V0.0405273H36.7404V15.2969C36.7404 15.2969 39.3645 10.7367 47.8095 10.7367C56.828 10.7367 62.1678 17.1063 62.1678 25.0261C62.1678 33.5387 56.3542 39.4811 47.7958 39.4811C39.6683 39.4811 36.6792 34.8046 36.6792 34.8046C36.6792 36.5759 36.4618 38.5136 36.4618 38.5136H30.4121C30.4121 38.5136 30.5494 35.8154 30.5494 33.8939ZM55.756 25.0261C55.756 19.2376 52.06 14.924 46.248 14.924C39.7428 14.924 36.7404 20.0783 36.7404 25.0811C36.7404 30.4501 40.0866 35.2938 46.2897 35.2938C51.4874 35.2938 55.756 31.2333 55.756 25.0261Z" fill="#0064D2"/>
<path fill-rule="evenodd" clip-rule="evenodd" d="M63.4948 18.8353C63.4948 17.7079 64.321 10.6543 77.2035 10.6543C83.4208 10.6543 90.4704 12.4932 90.4704 21.233V34.5618C90.4704 36.1039 90.6911 38.5142 90.6911 38.5142H84.9909C84.9909 38.5142 84.839 36.5696 84.839 34.5963C84.839 34.5963 81.9468 39.5574 72.968 39.5574C66.3798 39.5574 61.5049 36.385 61.5049 30.5544C61.5049 24.6294 66.7811 21.7097 76.7613 21.7097H84.2789V20.383C84.2789 16.6562 80.9968 14.7172 76.7613 14.7172C70.2431 14.7172 69.907 18.8353 69.907 18.8353H63.4948ZM84.2789 27.4585V25.6896C74.5433 25.6896 67.917 25.7208 67.917 30.554C67.917 33.2109 69.8847 35.5013 74.4741 35.5013C82.8551 35.5013 84.2789 29.7655 84.2789 27.4585Z" fill="#F5AF02"/>
<path d="M87.0171 11.7603H94.2306L104.583 32.5014L114.912 11.7603H121.447L102.633 48.686H95.7784L101.207 38.3924L87.0171 11.7603Z" fill="#86B817"/>
</svg>
