<svg width="130" height="37" viewBox="0 0 130 37" fill="none" xmlns="http://www.w3.org/2000/svg">
<path fill-rule="evenodd" clip-rule="evenodd" d="M87.1147 31.3684H91.9466V13.6738H87.1147V31.3684Z" fill="black"/>
<path fill-rule="evenodd" clip-rule="evenodd" d="M80.271 13.6738L75.5426 26.5478L70.8139 13.6738H65.9854L72.4883 31.3684H73.7726H77.3101H78.5968L85.098 13.6738H80.271Z" fill="black"/>
<path fill-rule="evenodd" clip-rule="evenodd" d="M108.998 17.5728V13.6739H103.214V8.79297H98.3874V13.6739H94.5679V17.5728H98.3874V25.1844C98.3874 29.1124 100.354 31.7322 105.362 31.7322C107.301 31.7322 108.998 31.0259 108.998 31.0259L108.414 27.2026C108.414 27.2026 107.462 27.4846 106.294 27.4846C104.861 27.4846 103.214 26.8702 103.214 24.8861V17.5728H108.998Z" fill="black"/>
<path fill-rule="evenodd" clip-rule="evenodd" d="M53.1526 22.5183L56.1489 14.3716L59.1414 22.5183H53.1526ZM62.3908 31.3688H67.5305L58.0096 5.45068H57.2391H55.4753H54.2832L44.7617 31.3688H49.9033L51.7187 26.4235H60.5691L62.3908 31.3688Z" fill="black"/>
<mask id="mask0_0_4037" style="mask-type:luminance" maskUnits="userSpaceOnUse" x="110" y="13" width="20" height="19">
<path fill-rule="evenodd" clip-rule="evenodd" d="M110.594 13.2212H129.552V31.7631H110.594V13.2212Z" fill="white"/>
</mask>
<g mask="url(#mask0_0_4037)">
<path fill-rule="evenodd" clip-rule="evenodd" d="M120.072 27.3228C117.382 27.3228 115.2 25.1888 115.2 22.5577C115.2 19.9251 117.382 17.7899 120.072 17.7899C122.766 17.7899 124.944 19.9251 124.944 22.5577C124.944 25.1888 122.766 27.3228 120.072 27.3228ZM120.072 13.2212C114.84 13.2212 110.594 17.3757 110.594 22.492C110.594 27.611 114.84 31.7631 120.072 31.7631C125.301 31.7631 129.552 27.611 129.552 22.492C129.552 17.3757 125.301 13.2212 120.072 13.2212Z" fill="black"/>
</g>
<path fill-rule="evenodd" clip-rule="evenodd" d="M92.6467 8.49098C92.6467 10.2107 91.2518 11.6031 89.5345 11.6031C87.8122 11.6031 86.4199 10.2107 86.4199 8.49098C86.4199 6.77378 87.8122 5.37891 89.5345 5.37891C91.2518 5.37891 92.6467 6.77378 92.6467 8.49098Z" fill="black"/>
<mask id="mask1_0_4037" style="mask-type:luminance" maskUnits="userSpaceOnUse" x="0" y="0" width="17" height="17">
<path fill-rule="evenodd" clip-rule="evenodd" d="M0 0.0864258H16.2706V16.3571H0V0.0864258Z" fill="white"/>
</mask>
<g mask="url(#mask1_0_4037)">
<path fill-rule="evenodd" clip-rule="evenodd" d="M16.2706 8.22057C16.2706 12.7137 12.6297 16.3571 8.13656 16.3571C3.64339 16.3571 0 12.7137 0 8.22057C0 3.7287 3.64339 0.0864258 8.13656 0.0864258C12.6297 0.0864258 16.2706 3.7287 16.2706 8.22057Z" fill="#00AAFF"/>
</g>
<path fill-rule="evenodd" clip-rule="evenodd" d="M36.6278 26.8162C36.6278 32.2826 32.1952 36.7129 26.7288 36.7129C21.2648 36.7129 16.8359 32.2826 16.8359 26.8162C16.8359 21.3499 21.2648 16.9185 26.7288 16.9185C32.1952 16.9185 36.6278 21.3499 36.6278 26.8162Z" fill="#97CF26"/>
<path fill-rule="evenodd" clip-rule="evenodd" d="M33.1013 8.22061C33.1013 11.7394 30.2485 14.5934 26.7286 14.5934C23.2135 14.5934 20.3608 11.7394 20.3608 8.22061C20.3608 4.70315 23.2135 1.85156 26.7286 1.85156C30.2485 1.85156 33.1013 4.70315 33.1013 8.22061Z" fill="#FF6163"/>
<path fill-rule="evenodd" clip-rule="evenodd" d="M12.7454 26.8162C12.7454 29.3617 10.6807 31.4216 8.13645 31.4216C5.59204 31.4216 3.52734 29.3617 3.52734 26.8162C3.52734 24.2706 5.59204 22.2109 8.13645 22.2109C10.6807 22.2109 12.7454 24.2706 12.7454 26.8162Z" fill="#A169F7"/>
</svg>
