<svg width="165" height="34" viewBox="0 0 165 34" fill="none" xmlns="http://www.w3.org/2000/svg">
<path fill-rule="evenodd" clip-rule="evenodd" d="M0.363281 28.1379H3.66949L9.05087 17.7433H10.9385V28.1379H13.812V0.117188H9.1599C8.11645 0.117188 7.13045 0.310636 6.19604 0.697532C5.26397 1.0856 4.4468 1.66008 3.74335 2.4245C3.04107 3.18891 2.48183 4.12684 2.07149 5.24064C1.65997 6.3556 1.45363 7.63822 1.45363 9.09202C1.45363 10.9831 1.82411 12.6128 2.56273 13.981C3.30135 15.3504 4.53121 16.4466 6.25114 17.2696L0.363281 28.1379ZM9.05087 2.51477H10.9385V15.3797H9.41432C8.78356 15.3797 8.17742 15.2648 7.59707 15.0338C7.01556 14.804 6.49501 14.4347 6.03425 13.927C5.57349 13.417 5.20418 12.7687 4.92514 11.9808C4.64728 11.1942 4.50659 10.2293 4.50659 9.09202C4.50659 7.92898 4.63321 6.93008 4.88645 6.09533C5.14438 5.25822 5.48204 4.5747 5.90645 4.04126C6.32852 3.50781 6.8139 3.12091 7.36025 2.87822C7.90542 2.63553 8.46818 2.51477 9.05087 2.51477Z" fill="#FF0000"/>
<path fill-rule="evenodd" clip-rule="evenodd" d="M42.5588 31.7726H39.9795V28.1029H31.9485V31.7726H29.3668V25.7393H30.4923C31.075 24.649 31.5288 23.4742 31.857 22.2139C32.1853 20.9535 32.4315 19.6815 32.6015 18.3977C32.7715 17.1139 32.8735 15.8418 32.911 14.5815C32.9485 13.3211 32.9661 12.1217 32.9661 10.9821V9.38531H41.1074V25.7405H42.5612V31.7726H42.5588ZM55.1353 27.2658C54.5292 27.6058 53.8574 27.9012 53.1188 28.1568C52.3801 28.4112 51.5477 28.5379 50.6285 28.5379C48.7386 28.5379 47.2239 27.7523 46.0854 26.1766C44.9482 24.6021 44.3772 22.385 44.3772 19.5255C44.3772 18.1444 44.4945 16.8172 44.7231 15.5463C44.9541 14.2719 45.3046 13.1464 45.7783 12.1651C46.2508 11.1826 46.8499 10.3948 47.5768 9.80269C48.3036 9.20945 49.1748 8.91166 50.1912 8.91166C51.6943 8.91166 52.9065 9.66435 53.8257 11.1662C54.7472 12.6669 55.2092 14.8851 55.2092 17.8173V19.4165H47.3939C47.3939 21.4518 47.7385 23.0392 48.4291 24.1765C49.1208 25.3161 50.2041 25.8859 51.6825 25.8859C52.2394 25.8859 52.8151 25.8073 53.4083 25.6514C54.0028 25.4919 54.4694 25.3407 54.8082 25.1941L55.1365 27.267L55.1353 27.2658ZM50.0822 11.2389C49.6719 11.2389 49.3084 11.3831 48.9919 11.6727C48.6776 11.9658 48.4115 12.3703 48.1946 12.892C47.9754 13.4126 47.8054 14.0246 47.6846 14.7268C47.5639 15.4303 47.4783 16.1923 47.4302 17.0177H52.2277V16.6191C52.2277 16.4972 52.2219 16.3635 52.2101 16.2181C52.1984 16.0728 52.1914 15.9157 52.1914 15.7457C52.0941 14.3153 51.8631 13.2062 51.4996 12.4183C51.1362 11.6328 50.6649 11.2377 50.0834 11.2377L50.0822 11.2389ZM38.235 11.7102V25.7393H33.0388C33.5219 24.9397 33.9216 23.9948 34.237 22.9044C34.5536 21.8141 34.8068 20.6569 34.9991 19.4341C35.1937 18.2101 35.3274 16.9626 35.4001 15.6894C35.4728 14.4173 35.5091 13.2121 35.5091 12.0737V11.7102H38.235ZM27.695 9.38414V28.1029H24.8225V19.1609H20.535V28.1017H17.6274V9.38297H20.535V16.761H24.8237V9.38414H27.6961H27.695ZM69.0202 28.1029H65.7843L61.3139 18.8701L60.9856 18.4715V28.1017H58.0781V9.38297H60.9856V17.8877L61.3139 17.5242L65.2767 9.38297H68.3648L63.7865 17.815L69.0202 28.1006V28.1029ZM72.7625 18.7975C72.7625 21.0016 73.1025 22.7344 73.7802 23.9948C74.4602 25.2551 75.5001 25.8847 76.9059 25.8847C77.4393 25.8847 77.9845 25.8061 78.5414 25.6502C79.0994 25.4908 79.5496 25.3395 79.8873 25.193L80.1781 27.2658C79.6212 27.6058 78.9974 27.9012 78.3069 28.1568C77.6152 28.4112 76.8343 28.5379 75.9621 28.5379C74.0979 28.5379 72.5879 27.7641 71.4365 26.213C70.2876 24.6619 69.7108 22.4331 69.7108 19.5255C69.7108 17.9263 69.8749 16.4726 70.2032 15.1641C70.5291 13.8557 70.9711 12.7408 71.528 11.8204C72.0849 10.9012 72.752 10.1861 73.527 9.67725C74.3008 9.16842 75.1379 8.91518 76.0359 8.91518C76.8332 8.91518 77.5554 9.02304 78.1979 9.24111C78.8392 9.45918 79.4148 9.74993 79.9236 10.1134L78.4323 12.6223C78.0923 12.2331 77.7113 11.9072 77.2869 11.6399C76.8648 11.3737 76.4345 11.2412 75.9972 11.2412C75.4896 11.2412 75.0288 11.4581 74.6173 11.8943C74.207 12.3304 73.867 12.9002 73.5996 13.6025C73.3335 14.3059 73.1272 15.1102 72.9818 16.02C72.8364 16.9286 72.7637 17.8548 72.7637 18.7986L72.7625 18.7975ZM92.7288 23.7544H94.1427L98.0234 9.32435C98.3118 8.23635 98.5662 7.18469 98.891 5.73442H99.0375C98.9648 7.04049 98.8921 8.34538 98.8921 9.57993V27.7441H100.632V1.81738H98.6014L94.1802 18.3883C93.9973 19.0413 93.7066 20.4189 93.5623 21.3979H93.4533C93.3443 20.4201 93.0899 19.0788 92.9093 18.3895L88.5221 1.81738H86.4188V27.743H88.0133V9.57876C88.0133 8.27152 87.9781 6.96662 87.9054 5.73324H88.0145C88.2325 6.92911 88.5233 8.0898 88.8856 9.43221L92.7264 23.7532L92.7288 23.7544ZM108.32 26.7288C110.024 26.7288 111.221 25.0992 111.872 23.1389V18.0999H109.914C106.906 18.0999 105.455 19.4775 105.455 22.6676C105.455 25.2422 106.581 26.7288 108.32 26.7288ZM112.381 27.7441C112.235 27.2728 112.055 26.5835 111.947 25.2786C111.076 27.0196 109.77 28.1076 107.957 28.1076C105.493 28.1076 103.788 26.1497 103.788 22.813C103.788 18.8971 105.928 16.8665 109.88 16.8665H111.873V14.5826C111.873 11.7899 110.823 10.5929 108.828 10.5929C107.269 10.5929 105.855 11.3198 104.985 12.5883L104.514 10.9563C105.238 10.0137 106.761 9.10628 108.828 9.10628C111.838 9.10628 113.541 10.7746 113.541 14.4009V24.3723C113.541 25.6408 113.724 27.0571 113.94 27.7441H112.381ZM122.534 26.7288C124.855 26.7288 126.377 23.9737 126.377 18.2077C126.377 13.4208 125.072 10.5917 122.969 10.5917C121.337 10.5917 119.959 12.3328 119.162 14.2907V24.5141C119.887 26.0031 120.902 26.7265 122.534 26.7265V26.7288ZM122.425 28.0712C121.048 28.0712 119.851 27.3819 119.163 26.4768V33.401H117.458V9.46855H118.945L119.09 12.4781C119.888 10.7371 121.23 9.10511 123.26 9.10511C126.306 9.10511 128.083 12.7677 128.083 18.0623C128.083 24.7686 125.834 28.0701 122.426 28.0701L122.425 28.0712ZM133.05 18.2816L139.396 27.743H141.283L134.827 17.9533L140.846 9.46973H139.179L133.05 18.0635V9.46973H131.346V27.7441H133.049V18.2781L133.05 18.2816ZM151.978 24.6619L152.522 26.0406C152.522 26.0406 151.145 28.1076 148.245 28.1076C144.364 28.1076 142.588 24.5903 142.588 18.6063C142.588 12.6223 144.836 9.10511 147.918 9.10511C151.072 9.10511 153.103 12.4055 152.523 18.8948H144.258C144.328 23.901 145.635 26.621 148.282 26.621C150.709 26.621 151.979 24.663 151.98 24.6607L151.978 24.6619ZM147.917 10.5226C145.994 10.5226 144.435 12.987 144.292 17.557H150.927C151.218 12.6962 149.767 10.5226 147.918 10.5226H147.917ZM164.597 10.8837V9.46856H154.443V10.8825H158.688V27.7418H160.39V10.8837H164.597Z" fill="#333333"/>
</svg>
